<svg id="Capa_1" enable-background="new 0 0 512 512" height="512" viewBox="0 0 512 512" width="512" xmlns="http://www.w3.org/2000/svg"><g><path d="m443.578 362.27c-.003 0-.006 0-.009 0l-142.569-12.35v-47.936h30v-45c0-24.813-20.187-45-45-45h-60c-24.813 0-45 20.187-45 45v45h30v40.14l-100.355-8.693-21.292-298.041-70.748-35.374-13.416 26.833 55.458 27.729 19.854 277.907c-45.177 4.761-80.501 43.081-80.501 89.499 0 49.626 40.374 90 90 90h347c41.355 0 75-33.645 75-75 0-39.188-30.054-71.372-68.422-74.714zm-232.578-105.286c0-8.271 6.729-15 15-15h60c8.271 0 15 6.729 15 15v15h-90zm60 45v45.337l-30-2.599v-42.739h30zm-181 180c-33.084 0-60-26.916-60-60s26.916-60 60-60c33.42 0 60 27.592 60 60 0 33.084-26.916 60-60 60zm287.041 0h-220.021c14.281-15.935 22.98-36.969 22.98-60 0-19.618-6.345-38.474-18.003-53.993l219.169 18.984c-11.907 13.281-19.166 30.811-19.166 50.009 0 16.871 5.603 32.456 15.041 45zm59.959 0c-24.813 0-45-20.187-45-45s20.187-45 45-45c25.118 0 45 20.741 45 45 0 24.813-20.187 45-45 45z"/><path d="m422 421.984h30v30h-30z"/><path d="m75 406.984h30v30h-30z"/></g></svg>